<svg width="26" height="25" viewBox="0 0 26 25" fill="none" xmlns="http://www.w3.org/2000/svg">
<path d="M6.25 13.75H19.75" stroke="#35404A" stroke-width="2" stroke-miterlimit="10" stroke-linecap="round" stroke-linejoin="round"/>
<path d="M7 13.75C8.425 15.7 9.25 18.1 9.25 20.5V23.5" stroke="#35404A" stroke-width="2" stroke-miterlimit="10" stroke-linecap="round" stroke-linejoin="round"/>
<path d="M19 13.75C17.575 15.7 16.75 18.1 16.75 20.5V23.5" stroke="#35404A" stroke-width="2" stroke-miterlimit="10" stroke-linecap="round" stroke-linejoin="round"/>
<path d="M9.025 18.25H4.75C3.1 18.25 1.75 16.9 1.75 15.25V4.75C1.75 3.1 3.1 1.75 4.75 1.75H21.25C22.9 1.75 24.25 3.1 24.25 4.75V15.25C24.25 16.9 22.9 18.25 21.25 18.25H16.975" stroke="#35404A" stroke-width="2" stroke-miterlimit="10" stroke-linecap="round" stroke-linejoin="round"/>
<path d="M17.5 7.75H8.5V13.75H17.5V7.75Z" stroke="#35404A" stroke-width="2" stroke-miterlimit="10" stroke-linecap="round" stroke-linejoin="round"/>
<path d="M8.57501 16.675L10.75 14.5L13 16.75L10.75 19L8.65001 16.9" stroke="#35404A" stroke-width="2" stroke-miterlimit="10" stroke-linecap="round" stroke-linejoin="round"/>
<path d="M17.35 16.9L15.25 19L13 16.75L15.25 14.5L17.425 16.675" stroke="#35404A" stroke-width="2" stroke-miterlimit="10" stroke-linecap="round" stroke-linejoin="round"/>
<path d="M9.25 20.5L10.75 19L13 21.25L10.75 23.5L9.25 22" stroke="#35404A" stroke-width="2" stroke-miterlimit="10" stroke-linecap="round" stroke-linejoin="round"/>
<path d="M16.75 22L15.25 23.5L13 21.25L15.25 19L16.75 20.5" stroke="#35404A" stroke-width="2" stroke-miterlimit="10" stroke-linecap="round" stroke-linejoin="round"/>
</svg>
