<svg width="36" height="36" viewBox="0 0 36 36" fill="none" xmlns="http://www.w3.org/2000/svg">
<path d="M18.2857 18C19.4724 18 20.6324 17.6481 21.6191 16.9888C22.6058 16.3295 23.3749 15.3925 23.829 14.2961C24.2831 13.1997 24.4019 11.9933 24.1704 10.8295C23.9389 9.66557 23.3675 8.59648 22.5283 7.75736C21.6892 6.91825 20.6201 6.3468 19.4562 6.11529C18.2924 5.88378 17.086 6.0026 15.9896 6.45673C14.8932 6.91085 13.9562 7.67989 13.2969 8.66658C12.6376 9.65328 12.2857 10.8133 12.2857 12C12.2857 13.5913 12.9178 15.1174 14.0431 16.2426C15.1683 17.3679 16.6944 18 18.2857 18ZM18.2857 7.71429C19.1333 7.71429 19.9619 7.96564 20.6667 8.43656C21.3715 8.90748 21.9208 9.57682 22.2452 10.3599C22.5696 11.143 22.6544 12.0048 22.4891 12.8361C22.3237 13.6674 21.9155 14.4311 21.3162 15.0305C20.7168 15.6298 19.9532 16.038 19.1218 16.2034C18.2905 16.3687 17.4287 16.2839 16.6456 15.9595C15.8625 15.6351 15.1932 15.0858 14.7223 14.381C14.2513 13.6762 14 12.8476 14 12C14 10.8634 14.4515 9.77327 15.2552 8.96954C16.059 8.16582 17.1491 7.71429 18.2857 7.71429V7.71429Z" fill="#35404A"/>
<path d="M19.1429 19.7143H17.4286C14.928 19.7143 12.5298 20.7076 10.7616 22.4758C8.99336 24.244 8 26.6422 8 29.1428C8 29.3702 8.09031 29.5882 8.25105 29.7489C8.4118 29.9097 8.62981 30 8.85714 30H27.7143C27.9416 30 28.1596 29.9097 28.3204 29.7489C28.4811 29.5882 28.5714 29.3702 28.5714 29.1428C28.5714 26.6422 27.5781 24.244 25.8099 22.4758C24.0417 20.7076 21.6435 19.7143 19.1429 19.7143ZM9.76571 28.2857C9.97648 26.4005 10.8744 24.6591 12.288 23.3942C13.7016 22.1292 15.5317 21.4295 17.4286 21.4286H19.1429C21.0398 21.4295 22.8698 22.1292 24.2834 23.3942C25.697 24.6591 26.5949 26.4005 26.8057 28.2857H9.76571Z" fill="#35404A"/>
</svg>
